<svg width="205" height="103" viewBox="0 0 205 103" fill="none" xmlns="http://www.w3.org/2000/svg">
<g clip-path="url(#clip0_1_35)">
<g clip-path="url(#clip1_1_35)">
<path fill-rule="evenodd" clip-rule="evenodd" d="M24.3774 42.8865C20.0347 49.0468 20.2706 61.3534 18.5918 69.9417C16.469 80.8193 8.72704 86.6327 0 91.2252C2.6084 80.5279 4.82831 69.8307 5.71628 59.1335C6.79849 45.9112 4.88381 46.7714 16.358 37.2812C32.4385 23.9479 58.5364 13.1258 97.4958 5.50873C131.572 -0.1243 167.548 -0.7764 204.343 0.638796C191.995 25.7377 152.55 27.8466 104.405 22.5743C79.2787 22.8518 55.9141 15.8036 24.3774 42.8865ZM139.952 81.4714C85.9107 109.748 31.6893 49.7821 12.7923 91.017C41.9841 65.6129 83.2606 135.179 139.952 81.4714ZM174.485 46.1332C112.189 83.8717 42.6501 35.1446 23.1565 71.9258C70.4961 54.7908 130.892 110.122 174.485 46.1332ZM186.057 25.6267C131.336 50.0596 46.7153 6.1747 25.5984 56.6916C68.6925 31.6066 142.782 76.6431 186.057 25.6267Z" fill="#4D5E80"/>
</g>
</g>
<defs>
<clipPath id="clip0_1_35">
<rect width="204.336" height="102.421" fill="white"/>
</clipPath>
<clipPath id="clip1_1_35">
<rect width="204.336" height="102.421" fill="white"/>
</clipPath>
</defs>
</svg>
