<svg width="30" height="30" viewBox="0 0 30 30" fill="none" xmlns="http://www.w3.org/2000/svg">
<path fill-rule="evenodd" clip-rule="evenodd" d="M21 5.01L9 5C7.9 5 7 5.89 7 7V23C7 24.1 7.9 25 9 25H21C22.1 25 23 24.1 23 23V7C23 5.89 22.1 5.01 21 5.01ZM20 23H10C9.45 23 9 22.55 9 22V14.98C9 14.43 9.45 13.98 10 13.98H20C20.55 13.98 21 14.43 21 14.98V22C21 22.55 20.55 23 20 23ZM20 12H10C9.45 12 9 11.55 9 11V8C9 7.45 9.45 7 10 7H20C20.55 7 21 7.45 21 8V11C21 11.55 20.55 12 20 12ZM12 8C12.55 8 13 8.45 13 9V10C13 10.55 12.55 11 12 11C11.45 11 11 10.55 11 10V9C11 8.45 11.45 8 12 8ZM12 15C12.55 15 13 15.45 13 16V19C13 19.55 12.55 20 12 20C11.45 20 11 19.55 11 19V16C11 15.45 11.45 15 12 15Z" fill="#C3CAD9"/>
</svg>
