<svg xmlns="http://www.w3.org/2000/svg" version="1.1" xmlnsXlink="http://www.w3.org/1999/xlink" xmlnsSvgjs="http://svgjs.dev/svgjs" width="1000" height="525" viewBox="0 0 1000 525"><g transform="matrix(1,0,0,1,-0.6060382933461597,0.2554011608901874)"><svg viewBox="0 0 396 208" dataBackgroundColor="#636365" preserveAspectRatio="xMidYMid meet" height="525" width="1000" xmlns="http://www.w3.org/2000/svg" xmlnsXlink="http://www.w3.org/1999/xlink"><g id="tight-bounds" transform="matrix(1,0,0,1,0.23999116416507604,-0.10118750755268024)"><svg viewBox="0 0 395.52 208.20237486747362" height="208.20237486747362" width="395.52"><g><svg viewBox="0 0 395.52 208.20237486747362" height="208.20237486747362" width="395.52"><g transform="matrix(1,0,0,1,0,153.06851273235782)"><svg viewBox="0 0 395.52 55.133862135115805" height="55.133862135115805" width="395.52"><g><svg viewBox="0 0 395.52 55.133862135115805" height="55.133862135115805" width="395.52"><g><rect width="75.54432000000001" height="3.337021790066196" y="48.76804394317462" fill="#ffffff" data-fill-palette-color="tertiary"></rect><rect width="75.54432000000001" height="3.337021790066196" y="48.76804394317462" x="319.97567999999995" fill="#ffffff" data-fill-palette-color="tertiary"></rect></g><g><svg viewBox="0 0 395.52 37.003588405000684" height="37.003588405000684" width="395.52"><g transform="matrix(1,0,0,1,0,0)"><svg width="395.52" viewBox="1.7599999904632568 -32.7599983215332 355.3899841308594 33.25" height="37.003588405000684" data-palette-color="#ffffff"><path d="M22.31-8.59L22.31-8.59Q22.31-11.72 20.21-13.94 18.12-16.16 13.62-16.16L13.62-16.16Q12.55-16.16 10.11-15.97L10.11-15.97Q9.91-15.38 9.91-14.36L9.91-14.36 9.91-7.23Q9.91-3.52 10.69-2.88L10.69-2.88Q11.43-2.2 13.33-2.2L13.33-2.2Q14.55-2.2 15.75-2.39 16.94-2.59 18.6-3.15 20.26-3.71 21.29-5.1 22.31-6.49 22.31-8.59ZM5.66-6.98L5.66-6.98 5.66-25.44Q5.66-28.32 5.32-29.64L5.32-29.64Q5.18-30.03 3.88-30.37 2.59-30.71 1.95-30.71L1.95-30.71Q1.76-30.71 1.76-31.3L1.76-31.3Q1.76-31.93 1.95-32.13L1.95-32.13Q4.49-32.03 7.76-32.03L7.76-32.03Q10.25-32.03 11.84-32.06 13.43-32.08 14.65-32.08L14.65-32.08Q15.92-32.08 17.24-31.86 18.55-31.64 19.95-31.05 21.34-30.47 22.41-29.59 23.49-28.71 24.17-27.27 24.85-25.83 24.85-24.07 24.85-22.31 23.73-20.8 22.61-19.29 21.66-18.7 20.7-18.12 20.02-17.87L20.02-17.87Q19.63-17.72 19.78-17.58L19.78-17.58Q21.68-17.24 24.32-14.82 26.95-12.4 26.95-9.13L26.95-9.13Q26.95-4.93 23.56-2.47 20.17 0 14.55 0L14.55 0 7.86 0 1.95 0.15Q1.81 0 1.81-0.63 1.81-1.27 1.95-1.27L1.95-1.27Q2.59-1.27 3.83-1.61 5.08-1.95 5.32-2.39L5.32-2.39Q5.66-2.98 5.66-6.98ZM15.87-18.36L15.87-18.36Q17.87-18.55 19.21-19.75 20.56-20.95 20.56-22.95L20.56-22.95Q20.56-26.32 18.87-28.2 17.19-30.08 13.87-30.08L13.87-30.08Q11.62-30.08 10.4-29.74L10.4-29.74Q10.11-29.69 10.11-29.3L10.11-29.3 9.91-24.37 9.91-18.55Q9.91-18.21 13.13-18.21L13.13-18.21Q14.7-18.21 15.87-18.36ZM35.69-32.03L35.69-32.03Q36.28-32.03 42.14-32.32L42.14-32.32Q42.23-32.13 42.21-31.57 42.19-31.01 42.04-31.01L42.04-31.01Q41.21-31.01 40.16-30.59 39.11-30.18 39.11-29.35L39.11-29.35Q39.11-28.81 39.65-27.88L39.65-27.88 45.11-17.53Q45.36-17.29 45.6-17.63L45.6-17.63Q52.24-27.69 52.24-29.39L52.24-29.39Q52.24-29.93 51.27-30.47 50.29-31.01 48.87-31.01L48.87-31.01Q48.68-31.01 48.68-31.57 48.68-32.13 48.87-32.32L48.87-32.32Q54.29-32.03 54.64-32.03L54.64-32.03Q56.15-32.03 57.76-32.18 59.37-32.32 59.81-32.32L59.81-32.32Q59.91-32.03 59.91-31.59L59.91-31.59Q59.91-31.01 59.71-31.01L59.71-31.01Q59.13-31.01 57.66-30.57 56.2-30.13 55.71-29.49L55.71-29.49Q53.85-26.61 50.31-20.75 46.77-14.89 46.77-14.21L46.77-14.21 46.77-6.79Q46.77-3.76 47.17-2.25L47.17-2.25Q47.26-1.9 48.48-1.54 49.7-1.17 50.14-1.17L50.14-1.17Q50.34-1.17 50.34-0.54L50.34-0.54Q50.34-0.15 50.24 0.15L50.24 0.15Q45.36-0.1 44.77-0.1L44.77-0.1Q44.63-0.1 39.01 0.15L39.01 0.15Q38.82-0.05 38.82-0.54L38.82-0.54Q38.82-1.17 39.01-1.17L39.01-1.17Q39.6-1.17 40.79-1.51 41.99-1.86 42.14-2.25L42.14-2.25Q42.53-3.76 42.53-6.93L42.53-6.93 42.53-13.04Q42.53-13.72 41.48-15.75 40.43-17.77 35.4-26.81L35.4-26.81Q34.62-28.27 34.2-28.83 33.79-29.39 33.01-29.93L33.01-29.93Q32.47-30.32 31.39-30.66 30.32-31.01 29.83-31.01L29.83-31.01Q29.64-31.01 29.64-31.54L29.64-31.54Q29.64-32.13 29.83-32.32L29.83-32.32Q30.61-32.28 32.47-32.15 34.32-32.03 35.69-32.03ZM71.45-32.13Q74.8-32.03 76.95-32.03 79.1-32.03 82.47-32.13 85.83-32.23 87.69-32.23L87.69-32.23Q88.91-32.23 91.06-32.76L91.06-32.76 91.99-25.78Q91.65-25.44 90.82-25.44L90.82-25.44Q90.38-25.44 90.33-25.68L90.33-25.68Q89.64-28.42 88.64-29.22 87.64-30.03 84.86-30.03L84.86-30.03Q79.68-30.03 79.49-29.3L79.49-29.3Q79.05-27.73 79.05-24.41L79.05-24.41 79.05-6.79Q79.05-3.96 79.49-2.25L79.49-2.25Q79.58-1.9 80.85-1.59 82.12-1.27 82.61-1.27L82.61-1.27Q82.81-1.27 82.81-0.54L82.81-0.54Q82.81-0.15 82.71 0.15L82.71 0.15Q77.83-0.1 77.05-0.1L77.05-0.1Q76.8-0.1 71.19 0.15L71.19 0.15Q70.99-0.05 70.99-0.59L70.99-0.59Q70.99-1.27 71.19-1.27L71.19-1.27Q71.82-1.27 73.07-1.56 74.31-1.86 74.46-2.25L74.46-2.25Q74.8-3.56 74.8-6.59L74.8-6.59 74.8-24.27Q74.8-28.52 74.36-29.3L74.36-29.3Q73.97-30.03 69.09-30.03L69.09-30.03Q66.3-30.03 65.3-29.22 64.3-28.42 63.62-25.68L63.62-25.68Q63.57-25.44 63.13-25.44L63.13-25.44Q62.3-25.44 61.96-25.78L61.96-25.78 62.89-32.76Q65.03-32.23 66.25-32.23L66.25-32.23Q68.11-32.23 71.45-32.13ZM100.68-32.03L100.68-32.03Q102.87-32.03 108.29-32.23 113.71-32.42 116.45-32.42L116.45-32.42Q116.64-31.01 117.2-28.69 117.77-26.37 117.86-25.78L117.86-25.78Q117.62-25.54 116.98-25.54 116.35-25.54 116.3-25.88L116.3-25.88Q115.57-28.56 114.25-29.32 112.93-30.08 110.64-30.08L110.64-30.08 107.37-30.08Q103.17-30.08 103.07-29.44L103.07-29.44Q102.82-28.27 102.82-25.34L102.82-25.34 102.82-17.53Q102.82-17.24 104.92-17.24L104.92-17.24 107.51-17.24Q108.88-17.24 109.49-17.24 110.1-17.24 110.78-17.43 111.47-17.63 111.66-17.68 111.86-17.72 112.18-18.31 112.49-18.9 112.54-19.17 112.59-19.43 112.88-20.56L112.88-20.56Q112.93-20.9 113.62-20.9L113.62-20.9Q114.2-20.9 114.45-20.65L114.45-20.65 114.45-11.43Q114.25-11.23 113.66-11.23L113.66-11.23Q113.03-11.23 112.88-11.62L112.88-11.62Q112.54-12.94 112.3-13.6 112.05-14.26 111.93-14.38 111.81-14.5 111.52-14.7L111.52-14.7Q110.88-15.09 106.34-15.09L106.34-15.09Q102.82-15.09 102.82-14.65L102.82-14.65 102.82-7.08Q102.82-3.91 103.26-2.64L103.26-2.64Q103.41-2.15 106.58-2.15L106.58-2.15 108.93-2.15Q113.47-2.15 115.08-2.98L115.08-2.98Q115.81-3.37 116.72-4.71 117.62-6.05 118.16-7.91L118.16-7.91Q118.25-8.2 118.84-8.2L118.84-8.2Q119.77-8.2 120.06-7.91L120.06-7.91Q119.82-7.28 119.3-5.88 118.79-4.49 118.5-3.64 118.21-2.78 117.86-1.66 117.52-0.54 117.42 0.2L117.42 0.2Q114.93 0.2 109.56 0.1 104.19 0 100.77 0L100.77 0 94.87 0.15Q94.72 0 94.72-0.63 94.72-1.27 94.87-1.27L94.87-1.27Q95.5-1.27 96.75-1.61 97.99-1.95 98.23-2.39L98.23-2.39Q98.58-2.98 98.58-6.98L98.58-6.98 98.58-25.44Q98.58-28.32 98.23-29.64L98.23-29.64Q98.09-30.03 96.79-30.37 95.5-30.71 94.87-30.71L94.87-30.71Q94.67-30.71 94.67-31.3L94.67-31.3Q94.67-31.93 94.87-32.13L94.87-32.13Q97.4-32.03 100.68-32.03ZM154.63-8.59L154.63-8.59Q154.63-11.72 152.53-13.94 150.43-16.16 145.93-16.16L145.93-16.16Q144.86-16.16 142.42-15.97L142.42-15.97Q142.22-15.38 142.22-14.36L142.22-14.36 142.22-7.23Q142.22-3.52 143.01-2.88L143.01-2.88Q143.74-2.2 145.64-2.2L145.64-2.2Q146.86-2.2 148.06-2.39 149.26-2.59 150.92-3.15 152.58-3.71 153.6-5.1 154.63-6.49 154.63-8.59ZM137.98-6.98L137.98-6.98 137.98-25.44Q137.98-28.32 137.63-29.64L137.63-29.64Q137.49-30.03 136.19-30.37 134.9-30.71 134.26-30.71L134.26-30.71Q134.07-30.71 134.07-31.3L134.07-31.3Q134.07-31.93 134.26-32.13L134.26-32.13Q136.8-32.03 140.08-32.03L140.08-32.03Q142.57-32.03 144.15-32.06 145.74-32.08 146.96-32.08L146.96-32.08Q148.23-32.08 149.55-31.86 150.87-31.64 152.26-31.05 153.65-30.47 154.72-29.59 155.8-28.71 156.48-27.27 157.17-25.83 157.17-24.07 157.17-22.31 156.04-20.8 154.92-19.29 153.97-18.7 153.01-18.12 152.33-17.87L152.33-17.87Q151.94-17.72 152.09-17.58L152.09-17.58Q153.99-17.24 156.63-14.82 159.26-12.4 159.26-9.13L159.26-9.13Q159.26-4.93 155.87-2.47 152.48 0 146.86 0L146.86 0 140.17 0 134.26 0.15Q134.12 0 134.12-0.63 134.12-1.27 134.26-1.27L134.26-1.27Q134.9-1.27 136.14-1.61 137.39-1.95 137.63-2.39L137.63-2.39Q137.98-2.98 137.98-6.98ZM148.18-18.36L148.18-18.36Q150.18-18.55 151.53-19.75 152.87-20.95 152.87-22.95L152.87-22.95Q152.87-26.32 151.18-28.2 149.5-30.08 146.18-30.08L146.18-30.08Q143.93-30.08 142.71-29.74L142.71-29.74Q142.42-29.69 142.42-29.3L142.42-29.3 142.22-24.37 142.22-18.55Q142.22-18.21 145.45-18.21L145.45-18.21Q147.01-18.21 148.18-18.36ZM168.88-32.08L168.88-32.08Q169.66-32.08 174.55-32.32L174.55-32.32Q174.64-32.03 174.64-31.64L174.64-31.64Q174.64-30.91 174.45-30.91L174.45-30.91Q173.96-30.91 172.69-30.57 171.42-30.22 171.32-29.88L171.32-29.88Q170.88-28.17 170.88-25.34L170.88-25.34 170.88-14.45Q170.88-8.94 173.23-5.66 175.57-2.39 179.87-2.39L179.87-2.39Q188.22-2.39 188.22-13.38L188.22-13.38 188.22-25.59Q188.22-28.56 187.88-29.88L187.88-29.88Q187.73-30.27 186.19-30.64 184.65-31.01 184.02-31.01L184.02-31.01Q183.82-31.01 183.82-31.57 183.82-32.13 184.02-32.32L184.02-32.32Q184.65-32.28 186.56-32.15 188.46-32.03 189.78-32.03L189.78-32.03Q191.05-32.03 192.98-32.18 194.91-32.32 195.25-32.32L195.25-32.32Q195.35-32.03 195.35-31.59L195.35-31.59Q195.35-31.01 195.15-31.01L195.15-31.01Q194.66-31.01 193.03-30.62 191.39-30.22 191.29-29.88L191.29-29.88Q190.9-28.37 190.9-25.34L190.9-25.34 190.9-13.48Q190.9-5.91 187.73-2.95 184.56 0 178.7 0L178.7 0Q172.89 0 169.76-3.42 166.64-6.84 166.64-14.45L166.64-14.45 166.64-25.54Q166.64-28.56 166.29-29.88L166.29-29.88Q166.15-30.27 164.9-30.59 163.66-30.91 163.02-30.91L163.02-30.91Q162.83-30.91 162.83-31.54L162.83-31.54Q162.83-32.13 163.02-32.32L163.02-32.32Q168.64-32.08 168.88-32.08ZM201.98-6.59L201.98-25.54Q201.98-28.56 201.64-29.88L201.64-29.88Q201.5-30.27 200.25-30.59 199.01-30.91 198.37-30.91L198.37-30.91Q198.18-30.91 198.18-31.54L198.18-31.54Q198.18-32.13 198.37-32.32L198.37-32.32Q203.99-32.08 204.23-32.08L204.23-32.08Q205.01-32.08 209.89-32.32L209.89-32.32Q209.99-32.03 209.99-31.59L209.99-31.59Q209.99-30.91 209.8-30.91L209.8-30.91Q209.31-30.91 208.04-30.57 206.77-30.22 206.67-29.88L206.67-29.88Q206.23-28.17 206.23-25.34L206.23-25.34 206.23-6.79Q206.23-3.96 206.67-2.25L206.67-2.25Q206.77-1.9 208.04-1.59 209.31-1.27 209.8-1.27L209.8-1.27Q209.99-1.27 209.99-0.54L209.99-0.54Q209.99-0.15 209.89 0.15L209.89 0.15Q205.01-0.1 204.23-0.1L204.23-0.1Q203.99-0.1 198.37 0.15L198.37 0.15Q198.18-0.05 198.18-0.59L198.18-0.59Q198.18-1.27 198.37-1.27L198.37-1.27Q199.01-1.27 200.25-1.56 201.5-1.86 201.64-2.25L201.64-2.25Q201.98-3.56 201.98-6.59L201.98-6.59ZM219.71-32.03L219.71-32.03Q220.68-32.03 221.61-32.08 222.54-32.13 223.61-32.2 224.69-32.28 225.37-32.32L225.37-32.32Q225.47-32.03 225.47-31.59L225.47-31.59Q225.47-30.91 225.27-30.91L225.27-30.91Q224.78-30.91 223.52-30.57 222.25-30.22 222.15-29.88L222.15-29.88Q221.71-28.17 221.71-25.34L221.71-25.34 221.71-6.93Q221.71-4.35 222.15-2.64L222.15-2.64Q222.29-2.15 225.47-2.15L225.47-2.15 227.81-2.15Q232.35-2.15 233.96-2.98L233.96-2.98Q234.7-3.37 235.6-4.71 236.5-6.05 237.04-7.91L237.04-7.91Q237.14-8.2 237.72-8.2L237.72-8.2Q238.65-8.2 238.94-7.91L238.94-7.91Q238.7-7.28 238.19-5.88 237.68-4.49 237.38-3.64 237.09-2.78 236.75-1.66 236.41-0.54 236.31 0.2L236.31 0.2Q233.77 0.2 228.37 0.05 222.98-0.1 219.66-0.1L219.66-0.1 213.75 0.05Q213.6-0.1 213.6-0.73 213.6-1.37 213.75-1.37L213.75-1.37Q214.43-1.37 215.65-1.66 216.87-1.95 217.12-2.39L217.12-2.39Q217.46-2.98 217.46-6.98L217.46-6.98 217.46-25.44Q217.46-28.56 217.12-29.88L217.12-29.88Q216.97-30.27 215.73-30.59 214.48-30.91 213.85-30.91L213.85-30.91Q213.65-30.91 213.65-31.54L213.65-31.54Q213.65-32.13 213.85-32.32L213.85-32.32Q214.48-32.28 216.44-32.15 218.39-32.03 219.71-32.03ZM247.24-32.03L247.24-32.03Q249.1-32.03 251.96-32.08 254.81-32.13 255.74-32.13L255.74-32.13Q263.7-32.13 268.14-27.44 272.58-22.75 272.58-16.41L272.58-16.41Q272.58-9.33 268.09-4.59 263.6 0.15 255.69 0.15L255.69 0.15Q255.1 0.15 252.2 0.05 249.29-0.05 247.34 0L247.34 0 241.43 0.15Q241.29 0 241.29-0.59L241.29-0.59Q241.29-1.27 241.43-1.27L241.43-1.27Q242.07-1.27 243.31-1.61 244.56-1.95 244.8-2.39L244.8-2.39Q245.14-2.98 245.14-6.98L245.14-6.98 245.14-25.44Q245.14-28.32 244.8-29.64L244.8-29.64Q244.66-30.03 243.36-30.37 242.07-30.71 241.43-30.71L241.43-30.71Q241.24-30.71 241.24-31.3L241.24-31.3Q241.24-31.93 241.43-32.13L241.43-32.13Q243.97-32.03 247.24-32.03ZM249.39-26.12L249.39-26.12 249.39-6.79Q249.39-4.74 250.12-3.08L250.12-3.08Q250.32-2.59 252.74-2.34 255.15-2.1 256.47-2.1L256.47-2.1Q267.7-2.1 267.7-16.6L267.7-16.6Q267.7-22.17 264.75-26.07 261.79-29.98 256.13-29.98L256.13-29.98 255.89-29.98Q250.61-29.98 250.03-29.2L250.03-29.2Q249.39-28.32 249.39-26.12ZM282.25-32.03L282.25-32.03Q284.45-32.03 289.87-32.23 295.29-32.42 298.02-32.42L298.02-32.42Q298.22-31.01 298.78-28.69 299.34-26.37 299.44-25.78L299.44-25.78Q299.19-25.54 298.56-25.54 297.92-25.54 297.88-25.88L297.88-25.88Q297.14-28.56 295.82-29.32 294.51-30.08 292.21-30.08L292.21-30.08 288.94-30.08Q284.74-30.08 284.64-29.44L284.64-29.44Q284.4-28.27 284.4-25.34L284.4-25.34 284.4-17.53Q284.4-17.24 286.5-17.24L286.5-17.24 289.09-17.24Q290.45-17.24 291.06-17.24 291.67-17.24 292.36-17.43 293.04-17.63 293.24-17.68 293.43-17.72 293.75-18.31 294.07-18.9 294.12-19.17 294.16-19.43 294.46-20.56L294.46-20.56Q294.51-20.9 295.19-20.9L295.19-20.9Q295.78-20.9 296.02-20.65L296.02-20.65 296.02-11.43Q295.82-11.23 295.24-11.23L295.24-11.23Q294.6-11.23 294.46-11.62L294.46-11.62Q294.12-12.94 293.87-13.6 293.63-14.26 293.51-14.38 293.38-14.5 293.09-14.7L293.09-14.7Q292.46-15.09 287.91-15.09L287.91-15.09Q284.4-15.09 284.4-14.65L284.4-14.65 284.4-7.08Q284.4-3.91 284.84-2.64L284.84-2.64Q284.98-2.15 288.16-2.15L288.16-2.15 290.5-2.15Q295.04-2.15 296.65-2.98L296.65-2.98Q297.39-3.37 298.29-4.71 299.19-6.05 299.73-7.91L299.73-7.91Q299.83-8.2 300.41-8.2L300.41-8.2Q301.34-8.2 301.64-7.91L301.64-7.91Q301.39-7.28 300.88-5.88 300.37-4.49 300.07-3.64 299.78-2.78 299.44-1.66 299.1-0.54 299 0.2L299 0.2Q296.51 0.2 291.14 0.1 285.77 0 282.35 0L282.35 0 276.44 0.15Q276.29 0 276.29-0.63 276.29-1.27 276.44-1.27L276.44-1.27Q277.07-1.27 278.32-1.61 279.56-1.95 279.81-2.39L279.81-2.39Q280.15-2.98 280.15-6.98L280.15-6.98 280.15-25.44Q280.15-28.32 279.81-29.64L279.81-29.64Q279.66-30.03 278.37-30.37 277.07-30.71 276.44-30.71L276.44-30.71Q276.24-30.71 276.24-31.3L276.24-31.3Q276.24-31.93 276.44-32.13L276.44-32.13Q278.98-32.03 282.25-32.03ZM316.72-30.08L316.72-30.08Q314.52-30.08 313.3-29.74L313.3-29.74Q313.11-29.69 312.99-29.37 312.86-29.05 312.79-27.91 312.72-26.76 312.72-24.37L312.72-24.37 312.72-18.46Q312.72-17.04 316.96-17.04L316.96-17.04 318.19-17.04Q319.89-17.04 321.73-18.75 323.56-20.46 323.56-23.29L323.56-23.29Q323.56-30.08 316.72-30.08ZM317.5-32.23L317.5-32.23Q319.16-32.23 320.87-31.74 322.58-31.25 324.24-30.27 325.9-29.3 326.97-27.49 328.05-25.68 328.05-23.29L328.05-23.29Q328.05-21.24 326.51-18.99 324.97-16.75 322.34-15.53L322.34-15.53Q321.85-15.33 322.04-15.04L322.04-15.04Q324.48-9.91 327.66-6.45L327.66-6.45Q332.35-1.32 335.28-1.32L335.28-1.32Q335.42-1.03 335.42-0.63L335.42-0.63Q335.42-0.2 335.28 0.1L335.28 0.1Q334.74 0.24 333.96 0.24L333.96 0.24Q327.12 0.24 322.09-6.79L322.09-6.79Q321.31-7.86 320.31-9.35 319.31-10.84 318.84-11.5 318.38-12.16 317.77-12.94 317.16-13.72 316.7-14.11 316.23-14.5 315.7-14.75L315.7-14.75Q315.16-14.94 313.89-14.94L313.89-14.94Q313.5-14.94 313.3-14.92 313.11-14.89 312.91-14.7 312.72-14.5 312.72-14.11L312.72-14.11 312.72-6.93Q312.72-3.66 313.11-2.69L313.11-2.69Q313.35-2.05 314.84-1.66 316.33-1.27 316.96-1.27L316.96-1.27Q317.16-1.27 317.16-0.59L317.16-0.59Q317.16-0.15 317.06 0.15L317.06 0.15Q312.18-0.1 310.71-0.1L310.71-0.1 304.76 0.15Q304.61 0 304.61-0.73L304.61-0.73Q304.61-1.37 304.76-1.37L304.76-1.37Q305.44-1.37 306.66-1.66 307.88-1.95 308.13-2.39L308.13-2.39Q308.47-2.98 308.47-6.98L308.47-6.98 308.47-25.44Q308.47-28.32 308.13-29.64L308.13-29.64Q307.98-30.03 306.69-30.37 305.39-30.71 304.76-30.71L304.76-30.71Q304.56-30.71 304.56-31.3L304.56-31.3Q304.56-31.93 304.76-32.13L304.76-32.13 310.62-32.03Q312.08-32.03 314.08-32.13 316.09-32.23 317.5-32.23ZM337.91-23.93L337.91-23.93Q337.91-27.69 340.79-30.1 343.67-32.52 347.48-32.52L347.48-32.52Q348.55-32.52 349.51-32.4 350.46-32.28 351.07-32.13 351.68-31.98 352.83-31.67 353.97-31.35 354.85-31.15L354.85-31.15Q355.44-28.56 355.44-24.17L355.44-24.17Q355.44-23.83 354.95-23.83L354.95-23.83Q353.78-23.83 353.68-24.32L353.68-24.32Q353.44-26.46 351.61-28.49 349.77-30.52 347.14-30.52L347.14-30.52Q344.21-30.52 343.01-29.05 341.82-27.59 341.82-25.44L341.82-25.44Q341.82-24.51 342.16-23.66 342.5-22.8 342.84-22.24 343.18-21.68 344.09-20.95 344.99-20.21 345.4-19.92 345.82-19.63 347.06-18.85 348.31-18.07 348.65-17.87L348.65-17.87Q348.9-17.72 350.36-16.82 351.83-15.92 352.36-15.55 352.9-15.19 354.05-14.23 355.19-13.28 355.71-12.55 356.22-11.82 356.68-10.72 357.15-9.62 357.15-8.45L357.15-8.45Q357.15-4.54 354.1-2.03 351.04 0.49 346.94 0.49L346.94 0.49Q345.77 0.49 344.45 0.32 343.13 0.15 342.26-0.02 341.38-0.2 340.03-0.51 338.69-0.83 338.15-0.93L338.15-0.93Q336.93-6.93 336.93-8.69L336.93-8.69Q336.93-8.98 337.71-8.98L337.71-8.98Q338.59-8.98 338.93-8.54L338.93-8.54Q340.6-1.51 347.04-1.51L347.04-1.51Q349.48-1.51 351.19-2.98 352.9-4.44 352.9-7.13L352.9-7.13Q352.9-8.11 352.61-8.94 352.31-9.77 352-10.3 351.68-10.84 350.87-11.45 350.07-12.06 349.63-12.35 349.19-12.65 348.02-13.28 346.85-13.92 346.41-14.16L346.41-14.16Q344.99-14.99 344.43-15.33 343.87-15.67 342.57-16.53 341.28-17.38 340.69-18.04 340.11-18.7 339.33-19.65 338.54-20.61 338.23-21.68 337.91-22.75 337.91-23.93Z" opacity="1" transform="matrix(1,0,0,1,0,0)" fill="#ffffff" class="undefined-text-0" data-fill-palette-color="primary" id="text-0"></path></svg></g></svg></g><g transform="matrix(1,0,0,1,75.54432000000001,45.739247541299626)"><svg viewBox="0 0 244.43135999999996 9.394614593816177" height="9.394614593816177" width="244.43135999999996"><g transform="matrix(1,0,0,1,8,0)"><svg width="228.43135999999996" viewBox="0 -29.5 1180.43994140625 48.54999923706055" height="9.394614593816177" data-palette-color="#ffffff"><path d="M4.5 0L0 0 0-29.5 4.5-29.5 4.5 0ZM12 0L10.5 0 10.5-29.5 12-29.5 12 0ZM18 0L13.5 0 13.5-29.5 18-29.5 18 0ZM21 0L19.5 0 19.5-29.5 21-29.5 21 0ZM24 0L22.5 0 22.5-29.5 24-29.5 24 0ZM12.2 15.95L12.2 11.4 8.6 4.35 10.1 4.35 12.95 10 15.5 4.35 16.9 4.35 13.6 11.4 13.6 15.95 12.2 15.95ZM27 0L25.5 0 25.5-29.5 27-29.5 27 0ZM34.5 0L33 0 33-29.5 34.5-29.5 34.5 0ZM37.5 0L36 0 36-29.5 37.5-29.5 37.5 0ZM45 0L43.5 0 43.5-29.5 45-29.5 45 0ZM52.5 0L51 0 51-29.5 52.5-29.5 52.5 0ZM58.5 0L54 0 54-29.5 58.5-29.5 58.5 0ZM61.5 0L60 0 60-29.5 61.5-29.5 61.5 0ZM67.5 0L63 0 63-29.5 67.5-29.5 67.5 0ZM70.5 0L69 0 69-29.5 70.5-29.5 70.5 0ZM78 0L76.5 0 76.5-29.5 78-29.5 78 0ZM52.5 16.1L52.5 16.1Q51.35 16.1 50.45 15.55L50.45 15.55Q49.6 15 49.1 14L49.1 14Q48.55 13 48.55 11.7L48.55 11.7Q48.55 10.4 49.1 9.4L49.1 9.4Q49.6 8.4 50.45 7.85L50.45 7.85Q51.35 7.25 52.5 7.25L52.5 7.25Q53.65 7.25 54.5 7.85L54.5 7.85Q55.4 8.4 55.9 9.4L55.9 9.4Q56.4 10.4 56.4 11.7L56.4 11.7Q56.4 13 55.9 14L55.9 14Q55.4 15 54.5 15.55L54.5 15.55Q53.65 16.1 52.5 16.1ZM52.5 15L52.5 15Q53.2 15 53.8 14.55L53.8 14.55Q54.35 14.15 54.7 13.4L54.7 13.4Q55 12.6 55 11.65L55 11.65Q55 10.2 54.3 9.3L54.3 9.3Q53.6 8.4 52.5 8.4L52.5 8.4Q51.4 8.4 50.7 9.3L50.7 9.3Q50 10.2 50 11.65L50 11.65Q50 12.6 50.3 13.4L50.3 13.4Q50.65 14.15 51.2 14.55L51.2 14.55Q51.75 15 52.5 15ZM81 0L79.5 0 79.5-29.5 81-29.5 81 0ZM88.5 0L87 0 87-29.5 88.5-29.5 88.5 0ZM91.5 0L90 0 90-29.5 91.5-29.5 91.5 0ZM99 0L97.5 0 97.5-29.5 99-29.5 99 0ZM106.5 0L105 0 105-29.5 106.5-29.5 106.5 0ZM112.5 0L108 0 108-29.5 112.5-29.5 112.5 0ZM120 0L118.5 0 118.5-29.5 120-29.5 120 0ZM123 0L121.5 0 121.5-29.5 123-29.5 123 0ZM126 0L124.5 0 124.5-29.5 126-29.5 126 0ZM132 0L127.5 0 127.5-29.5 132-29.5 132 0ZM105.95 16.15L105.95 16.15Q104.59 16.15 103.8 15.15L103.8 15.15Q103 14.15 103.05 12.2L103.05 12.2 103.05 7.45 104.34 7.45 104.34 12.2Q104.34 13.7 104.9 14.4L104.9 14.4Q105.4 15.1 106.3 15.1L106.3 15.1Q107.25 15.1 107.9 14.3L107.9 14.3Q108.59 13.55 108.59 12.15L108.59 12.15 108.59 7.45 109.9 7.45 109.9 14.65Q109.9 15.1 109.9 15.35L109.9 15.35Q109.95 15.65 110.05 15.95L110.05 15.95 108.8 15.95Q108.65 15.65 108.65 15.35L108.65 15.35Q108.59 15.1 108.59 14.65L108.59 14.65Q108.2 15.35 107.5 15.75L107.5 15.75Q106.8 16.15 105.95 16.15ZM134.99 0L133.49 0 133.49-29.5 134.99-29.5 134.99 0ZM142.49 0L140.99 0 140.99-29.5 142.49-29.5 142.49 0ZM145.49 0L143.99 0 143.99-29.5 145.49-29.5 145.49 0ZM152.99 0L151.49 0 151.49-29.5 152.99-29.5 152.99 0ZM160.49 0L158.99 0 158.99-29.5 160.49-29.5 160.49 0ZM166.49 0L161.99 0 161.99-29.5 166.49-29.5 166.49 0ZM169.49 0L167.99 0 167.99-29.5 169.49-29.5 169.49 0ZM172.49 0L170.99 0 170.99-29.5 172.49-29.5 172.49 0ZM178.49 0L173.99 0 173.99-29.5 178.49-29.5 178.49 0ZM185.99 0L184.49 0 184.49-29.5 185.99-29.5 185.99 0ZM162.09 7.25L162.09 7.25Q163.44 7.25 164.34 8.2L164.34 8.2 163.74 9.2 163.69 9.4 163.54 9.3Q163.49 9.1 163.44 9L163.44 9Q163.34 8.85 163.09 8.7L163.09 8.7Q162.64 8.4 161.99 8.4L161.99 8.4Q161.34 8.4 160.74 8.75L160.74 8.75Q160.14 9.05 159.79 9.75L159.79 9.75Q159.39 10.45 159.39 11.45L159.39 11.45 159.39 15.95 158.04 15.95 158.04 7.45 159.44 7.45 159.39 9Q159.74 8.2 160.49 7.7L160.49 7.7Q161.24 7.25 162.09 7.25ZM188.99 0L187.49 0 187.49-29.5 188.99-29.5 188.99 0ZM199.49 0L194.99 0 194.99-29.5 199.49-29.5 199.49 0ZM202.49 0L200.99 0 200.99-29.5 202.49-29.5 202.49 0ZM208.49 0L203.99 0 203.99-29.5 208.49-29.5 208.49 0ZM211.49 0L209.99 0 209.99-29.5 211.49-29.5 211.49 0ZM214.49 0L212.99 0 212.99-29.5 214.49-29.5 214.49 0ZM221.99 0L220.49 0 220.49-29.5 221.99-29.5 221.99 0ZM224.99 0L223.49 0 223.49-29.5 224.99-29.5 224.99 0ZM232.49 0L230.99 0 230.99-29.5 232.49-29.5 232.49 0ZM239.99 0L238.49 0 238.49-29.5 239.99-29.5 239.99 0ZM242.99 0L241.49 0 241.49-29.5 242.99-29.5 242.99 0ZM253.49 0L248.99 0 248.99-29.5 253.49-29.5 253.49 0ZM256.49 0L254.99 0 254.99-29.5 256.49-29.5 256.49 0ZM259.49 0L257.99 0 257.99-29.5 259.49-29.5 259.49 0ZM265.49 0L260.99 0 260.99-29.5 265.49-29.5 265.49 0ZM242.54 7.45L243.79 7.45Q243.49 8.95 242.54 11.15L242.54 11.15 240.49 15.95 239.44 15.95 236.09 7.45 237.44 7.45 240.04 14.1 241.44 10.95Q242.29 9.05 242.54 7.45L242.54 7.45ZM268.49 0L266.99 0 266.99-29.5 268.49-29.5 268.49 0ZM275.99 0L274.49 0 274.49-29.5 275.99-29.5 275.99 0ZM278.99 0L277.49 0 277.49-29.5 278.99-29.5 278.99 0ZM286.49 0L284.99 0 284.99-29.5 286.49-29.5 286.49 0ZM293.99 0L292.49 0 292.49-29.5 293.99-29.5 293.99 0ZM296.99 0L295.49 0 295.49-29.5 296.99-29.5 296.99 0ZM302.99 0L298.49 0 298.49-29.5 302.99-29.5 302.99 0ZM305.99 0L304.49 0 304.49-29.5 305.99-29.5 305.99 0ZM316.49 0L311.99 0 311.99-29.5 316.49-29.5 316.49 0ZM319.49 0L317.99 0 317.99-29.5 319.49-29.5 319.49 0ZM291.19 15.95L291.19 14.85 293.38 14.85 293.38 8.55 291.29 8.55 291.29 7.45 294.69 7.45 294.69 14.85 296.69 14.85 296.69 15.95 291.19 15.95ZM293.99 5.65L293.99 5.65Q293.59 5.65 293.29 5.4L293.29 5.4Q293.04 5.1 293.04 4.7L293.04 4.7Q293.04 4.3 293.29 4.05L293.29 4.05Q293.54 3.75 293.99 3.75L293.99 3.75Q294.34 3.75 294.63 4.05L294.63 4.05Q294.94 4.35 294.94 4.7L294.94 4.7Q294.94 5.1 294.63 5.4L294.63 5.4Q294.34 5.65 293.99 5.65ZM322.48 0L320.98 0 320.98-29.5 322.48-29.5 322.48 0ZM329.98 0L328.48 0 328.48-29.5 329.98-29.5 329.98 0ZM332.98 0L331.48 0 331.48-29.5 332.98-29.5 332.98 0ZM340.48 0L338.98 0 338.98-29.5 340.48-29.5 340.48 0ZM347.98 0L346.48 0 346.48-29.5 347.98-29.5 347.98 0ZM350.98 0L349.48 0 349.48-29.5 350.98-29.5 350.98 0ZM356.98 0L352.48 0 352.48-29.5 356.98-29.5 356.98 0ZM359.98 0L358.48 0 358.48-29.5 359.98-29.5 359.98 0ZM365.98 0L361.48 0 361.48-29.5 365.98-29.5 365.98 0ZM373.48 0L371.98 0 371.98-29.5 373.48-29.5 373.48 0ZM347.98 16.15L347.98 16.15Q345.83 16.15 344.38 14.8L344.38 14.8 345.13 13.55 345.23 13.35 345.38 13.45Q345.38 13.5 345.38 13.6L345.38 13.6Q345.43 13.75 345.48 13.85L345.48 13.85Q345.58 14 345.68 14.15L345.68 14.15Q346.13 14.55 346.68 14.8L346.68 14.8Q347.23 15 348.03 15L348.03 15Q349.03 15 349.63 14.65L349.63 14.65Q350.18 14.3 350.18 13.65L350.18 13.65Q350.18 13.1 349.73 12.75L349.73 12.75Q349.28 12.4 348.03 12.05L348.03 12.05Q344.83 11.1 344.83 9.4L344.83 9.4Q344.83 8.4 345.68 7.85L345.68 7.85Q346.48 7.25 347.98 7.25L347.98 7.25Q349.13 7.25 349.93 7.6L349.93 7.6Q350.73 7.9 351.38 8.6L351.38 8.6 350.58 9.5 350.48 9.65 350.38 9.55Q350.38 9.35 350.28 9.25L350.28 9.25Q350.23 9.1 350.03 8.95L350.03 8.95Q349.58 8.6 349.08 8.45L349.08 8.45Q348.53 8.25 348.03 8.25L348.03 8.25Q347.23 8.25 346.68 8.55L346.68 8.55Q346.18 8.8 346.18 9.3L346.18 9.3Q346.18 9.8 346.73 10.15L346.73 10.15Q347.23 10.55 348.58 10.95L348.58 10.95Q350.18 11.45 350.83 12L350.83 12Q351.53 12.55 351.53 13.5L351.53 13.5Q351.53 14.65 350.63 15.4L350.63 15.4Q349.73 16.15 347.98 16.15ZM376.48 0L374.98 0 374.98-29.5 376.48-29.5 376.48 0ZM383.98 0L382.48 0 382.48-29.5 383.98-29.5 383.98 0ZM386.98 0L385.48 0 385.48-29.5 386.98-29.5 386.98 0ZM394.48 0L392.98 0 392.98-29.5 394.48-29.5 394.48 0ZM401.98 0L400.48 0 400.48-29.5 401.98-29.5 401.98 0ZM404.98 0L403.48 0 403.48-29.5 404.98-29.5 404.98 0ZM410.98 0L406.48 0 406.48-29.5 410.98-29.5 410.98 0ZM413.98 0L412.48 0 412.48-29.5 413.98-29.5 413.98 0ZM424.48 0L419.98 0 419.98-29.5 424.48-29.5 424.48 0ZM427.48 0L425.98 0 425.98-29.5 427.48-29.5 427.48 0ZM399.18 15.95L399.18 14.85 401.38 14.85 401.38 8.55 399.28 8.55 399.28 7.45 402.68 7.45 402.68 14.85 404.68 14.85 404.68 15.95 399.18 15.95ZM401.98 5.65L401.98 5.65Q401.58 5.65 401.28 5.4L401.28 5.4Q401.03 5.1 401.03 4.7L401.03 4.7Q401.03 4.3 401.28 4.05L401.28 4.05Q401.53 3.75 401.98 3.75L401.98 3.75Q402.33 3.75 402.63 4.05L402.63 4.05Q402.93 4.35 402.93 4.7L402.93 4.7Q402.93 5.1 402.63 5.4L402.63 5.4Q402.33 5.65 401.98 5.65ZM430.48 0L428.98 0 428.98-29.5 430.48-29.5 430.48 0ZM437.98 0L436.48 0 436.48-29.5 437.98-29.5 437.98 0ZM440.98 0L439.48 0 439.48-29.5 440.98-29.5 440.98 0ZM448.48 0L446.98 0 446.98-29.5 448.48-29.5 448.48 0ZM455.98 0L454.48 0 454.48-29.5 455.98-29.5 455.98 0ZM461.98 0L457.48 0 457.48-29.5 461.98-29.5 461.98 0ZM464.98 0L463.48 0 463.48-29.5 464.98-29.5 464.98 0ZM470.98 0L466.48 0 466.48-29.5 470.98-29.5 470.98 0ZM473.98 0L472.48 0 472.48-29.5 473.98-29.5 473.98 0ZM481.48 0L479.98 0 479.98-29.5 481.48-29.5 481.48 0ZM455.98 16.1L455.98 16.1Q454.83 16.1 453.93 15.55L453.93 15.55Q453.08 15 452.58 14L452.58 14Q452.03 13 452.03 11.7L452.03 11.7Q452.03 10.4 452.58 9.4L452.58 9.4Q453.08 8.4 453.93 7.85L453.93 7.85Q454.83 7.25 455.98 7.25L455.98 7.25Q457.13 7.25 457.98 7.85L457.98 7.85Q458.88 8.4 459.38 9.4L459.38 9.4Q459.88 10.4 459.88 11.7L459.88 11.7Q459.88 13 459.38 14L459.38 14Q458.88 15 457.98 15.55L457.98 15.55Q457.13 16.1 455.98 16.1ZM455.98 15L455.98 15Q456.68 15 457.28 14.55L457.28 14.55Q457.83 14.15 458.18 13.4L458.18 13.4Q458.48 12.6 458.48 11.65L458.48 11.65Q458.48 10.2 457.78 9.3L457.78 9.3Q457.08 8.4 455.98 8.4L455.98 8.4Q454.88 8.4 454.18 9.3L454.18 9.3Q453.48 10.2 453.48 11.65L453.48 11.65Q453.48 12.6 453.78 13.4L453.78 13.4Q454.13 14.15 454.68 14.55L454.68 14.55Q455.23 15 455.98 15ZM484.48 0L482.98 0 482.98-29.5 484.48-29.5 484.48 0ZM491.98 0L490.48 0 490.48-29.5 491.98-29.5 491.98 0ZM494.98 0L493.48 0 493.48-29.5 494.98-29.5 494.98 0ZM502.48 0L500.98 0 500.98-29.5 502.48-29.5 502.48 0ZM509.98 0L508.48 0 508.48-29.5 509.98-29.5 509.98 0ZM512.98 0L511.48 0 511.48-29.5 512.98-29.5 512.98 0ZM515.98 0L514.48 0 514.48-29.5 515.98-29.5 515.98 0ZM521.98 0L517.48 0 517.48-29.5 521.98-29.5 521.98 0ZM524.98 0L523.48 0 523.48-29.5 524.98-29.5 524.98 0ZM535.48 0L530.98 0 530.98-29.5 535.48-29.5 535.48 0ZM506.68 15.95L506.68 7.45 507.98 7.45 507.98 8.95Q508.48 8.2 509.23 7.7L509.23 7.7Q509.98 7.25 510.83 7.25L510.83 7.25Q511.98 7.25 512.68 8.1L512.68 8.1Q513.33 9 513.33 10.8L513.33 10.8 513.33 15.95 512.02 15.95 512.02 10.85Q512.02 9.55 511.63 9L511.63 9Q511.18 8.4 510.48 8.4L510.48 8.4Q509.88 8.4 509.33 8.75L509.33 8.75Q508.73 9.1 508.33 9.7L508.33 9.7Q507.98 10.3 507.98 11.05L507.98 11.05 507.98 15.95 506.68 15.95ZM538.47 0L536.97 0 536.97-29.5 538.47-29.5 538.47 0ZM545.97 0L544.47 0 544.47-29.5 545.97-29.5 545.97 0ZM553.47 0L551.97 0 551.97-29.5 553.47-29.5 553.47 0ZM556.47 0L554.97 0 554.97-29.5 556.47-29.5 556.47 0ZM563.97 0L562.47 0 562.47-29.5 563.97-29.5 563.97 0ZM566.97 0L565.47 0 565.47-29.5 566.97-29.5 566.97 0ZM572.97 0L568.47 0 568.47-29.5 572.97-29.5 572.97 0ZM575.97 0L574.47 0 574.47-29.5 575.97-29.5 575.97 0ZM578.97 0L577.47 0 577.47-29.5 578.97-29.5 578.97 0ZM589.47 0L584.97 0 584.97-29.5 589.47-29.5 589.47 0ZM563.02 19.05L562.37 18.5Q562.92 18.05 563.27 17.45L563.27 17.45Q563.62 16.9 563.62 16.55L563.62 16.55Q563.62 16.4 563.52 16.3L563.52 16.3Q563.42 16.15 563.17 15.95L563.17 15.95Q562.92 15.7 562.77 15.55L562.77 15.55Q562.67 15.35 562.67 15.15L562.67 15.15Q562.67 14.65 562.97 14.35L562.97 14.35Q563.27 14.05 563.72 14.05L563.72 14.05Q564.27 14.05 564.62 14.45L564.62 14.45Q565.02 14.9 565.02 15.6L565.02 15.6Q565.02 17.05 563.02 19.05L563.02 19.05ZM592.47 0L590.97 0 590.97-29.5 592.47-29.5 592.47 0ZM602.97 0L598.47 0 598.47-29.5 602.97-29.5 602.97 0ZM605.97 0L604.47 0 604.47-29.5 605.97-29.5 605.97 0ZM611.97 0L607.47 0 607.47-29.5 611.97-29.5 611.97 0ZM614.97 0L613.47 0 613.47-29.5 614.97-29.5 614.97 0ZM617.97 0L616.47 0 616.47-29.5 617.97-29.5 617.97 0ZM625.47 0L623.97 0 623.97-29.5 625.47-29.5 625.47 0ZM628.47 0L626.97 0 626.97-29.5 628.47-29.5 628.47 0ZM635.97 0L634.47 0 634.47-29.5 635.97-29.5 635.97 0ZM643.47 0L641.97 0 641.97-29.5 643.47-29.5 643.47 0ZM649.47 0L644.97 0 644.97-29.5 649.47-29.5 649.47 0ZM652.47 0L650.97 0 650.97-29.5 652.47-29.5 652.47 0ZM658.47 0L653.97 0 653.97-29.5 658.47-29.5 658.47 0ZM661.47 0L659.97 0 659.97-29.5 661.47-29.5 661.47 0ZM668.97 0L667.47 0 667.47-29.5 668.97-29.5 668.97 0ZM643.47 16.1L643.47 16.1Q642.32 16.1 641.42 15.55L641.42 15.55Q640.57 15 640.07 14L640.07 14Q639.52 13 639.52 11.7L639.52 11.7Q639.52 10.4 640.07 9.4L640.07 9.4Q640.57 8.4 641.42 7.85L641.42 7.85Q642.32 7.25 643.47 7.25L643.47 7.25Q644.62 7.25 645.47 7.85L645.47 7.85Q646.37 8.4 646.87 9.4L646.87 9.4Q647.37 10.4 647.37 11.7L647.37 11.7Q647.37 13 646.87 14L646.87 14Q646.37 15 645.47 15.55L645.47 15.55Q644.62 16.1 643.47 16.1ZM643.47 15L643.47 15Q644.17 15 644.77 14.55L644.77 14.55Q645.32 14.15 645.67 13.4L645.67 13.4Q645.97 12.6 645.97 11.65L645.97 11.65Q645.97 10.2 645.27 9.3L645.27 9.3Q644.57 8.4 643.47 8.4L643.47 8.4Q642.37 8.4 641.67 9.3L641.67 9.3Q640.97 10.2 640.97 11.65L640.97 11.65Q640.97 12.6 641.27 13.4L641.27 13.4Q641.62 14.15 642.17 14.55L642.17 14.55Q642.72 15 643.47 15ZM671.96 0L670.46 0 670.46-29.5 671.96-29.5 671.96 0ZM679.46 0L677.96 0 677.96-29.5 679.46-29.5 679.46 0ZM682.46 0L680.96 0 680.96-29.5 682.46-29.5 682.46 0ZM689.96 0L688.46 0 688.46-29.5 689.96-29.5 689.96 0ZM697.46 0L695.96 0 695.96-29.5 697.46-29.5 697.46 0ZM703.46 0L698.96 0 698.96-29.5 703.46-29.5 703.46 0ZM710.96 0L709.46 0 709.46-29.5 710.96-29.5 710.96 0ZM713.96 0L712.46 0 712.46-29.5 713.96-29.5 713.96 0ZM716.96 0L715.46 0 715.46-29.5 716.96-29.5 716.96 0ZM722.96 0L718.46 0 718.46-29.5 722.96-29.5 722.96 0ZM696.91 16.15L696.91 16.15Q695.56 16.15 694.76 15.15L694.76 15.15Q693.96 14.15 694.01 12.2L694.01 12.2 694.01 7.45 695.31 7.45 695.31 12.2Q695.31 13.7 695.86 14.4L695.86 14.4Q696.36 15.1 697.26 15.1L697.26 15.1Q698.21 15.1 698.86 14.3L698.86 14.3Q699.56 13.55 699.56 12.15L699.56 12.15 699.56 7.45 700.86 7.45 700.86 14.65Q700.86 15.1 700.86 15.35L700.86 15.35Q700.91 15.65 701.01 15.95L701.01 15.95 699.76 15.95Q699.61 15.65 699.61 15.35L699.61 15.35Q699.56 15.1 699.56 14.65L699.56 14.65Q699.16 15.35 698.46 15.75L698.46 15.75Q697.76 16.15 696.91 16.15ZM725.96 0L724.46 0 724.46-29.5 725.96-29.5 725.96 0ZM733.46 0L731.96 0 731.96-29.5 733.46-29.5 733.46 0ZM736.46 0L734.96 0 734.96-29.5 736.46-29.5 736.46 0ZM743.96 0L742.46 0 742.46-29.5 743.96-29.5 743.96 0ZM751.46 0L749.96 0 749.96-29.5 751.46-29.5 751.46 0ZM757.46 0L752.96 0 752.96-29.5 757.46-29.5 757.46 0ZM760.46 0L758.96 0 758.96-29.5 760.46-29.5 760.46 0ZM763.46 0L761.96 0 761.96-29.5 763.46-29.5 763.46 0ZM769.46 0L764.96 0 764.96-29.5 769.46-29.5 769.46 0ZM776.96 0L775.46 0 775.46-29.5 776.96-29.5 776.96 0ZM753.06 7.25L753.06 7.25Q754.41 7.25 755.31 8.2L755.31 8.2 754.71 9.2 754.66 9.4 754.51 9.3Q754.46 9.1 754.41 9L754.41 9Q754.31 8.85 754.06 8.7L754.06 8.7Q753.61 8.4 752.96 8.4L752.96 8.4Q752.31 8.4 751.71 8.75L751.71 8.75Q751.11 9.05 750.76 9.75L750.76 9.75Q750.36 10.45 750.36 11.45L750.36 11.45 750.36 15.95 749.01 15.95 749.01 7.45 750.41 7.45 750.36 9Q750.71 8.2 751.46 7.7L751.46 7.7Q752.21 7.25 753.06 7.25ZM779.96 0L778.46 0 778.46-29.5 779.96-29.5 779.96 0ZM790.46 0L785.96 0 785.96-29.5 790.46-29.5 790.46 0ZM793.46 0L791.96 0 791.96-29.5 793.46-29.5 793.46 0ZM799.46 0L794.96 0 794.96-29.5 799.46-29.5 799.46 0ZM802.46 0L800.96 0 800.96-29.5 802.46-29.5 802.46 0ZM805.46 0L803.96 0 803.96-29.5 805.46-29.5 805.46 0ZM812.96 0L811.46 0 811.46-29.5 812.96-29.5 812.96 0ZM815.96 0L814.46 0 814.46-29.5 815.96-29.5 815.96 0ZM823.46 0L821.96 0 821.96-29.5 823.46-29.5 823.46 0ZM830.96 0L829.46 0 829.46-29.5 830.96-29.5 830.96 0ZM836.96 0L832.46 0 832.46-29.5 836.96-29.5 836.96 0ZM842.96 0L838.46 0 838.46-29.5 842.96-29.5 842.96 0ZM845.96 0L844.46 0 844.46-29.5 845.96-29.5 845.96 0ZM848.96 0L847.46 0 847.46-29.5 848.96-29.5 848.96 0ZM856.46 0L854.96 0 854.96-29.5 856.46-29.5 856.46 0ZM827.01 15.95L827.01 7.45 828.26 7.45 828.26 8.3Q828.56 7.85 829.01 7.55L829.01 7.55Q829.46 7.25 829.96 7.25L829.96 7.25Q830.51 7.25 830.96 7.6L830.96 7.6Q831.36 7.95 831.46 8.5L831.46 8.5Q831.71 7.95 832.26 7.6L832.26 7.6Q832.76 7.25 833.41 7.25L833.41 7.25Q834.21 7.25 834.66 7.85L834.66 7.85Q835.06 8.45 835.01 9.45L835.01 9.45 835.01 15.95 833.81 15.95 833.81 9.95Q833.81 8.85 833.61 8.55L833.61 8.55Q833.41 8.25 833.01 8.25L833.01 8.25Q832.66 8.25 832.36 8.55L832.36 8.55Q832.06 8.85 831.86 9.35L831.86 9.35Q831.66 9.85 831.66 10.35L831.66 10.35 831.66 15.95 830.41 15.95 830.41 10.05Q830.41 9 830.21 8.65L830.21 8.65Q830.01 8.25 829.46 8.25L829.46 8.25Q829.21 8.25 828.91 8.5L828.91 8.5Q828.61 8.75 828.41 9.25L828.41 9.25Q828.26 9.7 828.26 10.3L828.26 10.3 828.26 15.95 827.01 15.95ZM859.45 0L857.95 0 857.95-29.5 859.45-29.5 859.45 0ZM866.95 0L865.45 0 865.45-29.5 866.95-29.5 866.95 0ZM869.95 0L868.45 0 868.45-29.5 869.95-29.5 869.95 0ZM877.45 0L875.95 0 875.95-29.5 877.45-29.5 877.45 0ZM884.95 0L883.45 0 883.45-29.5 884.95-29.5 884.95 0ZM887.95 0L886.45 0 886.45-29.5 887.95-29.5 887.95 0ZM893.95 0L889.45 0 889.45-29.5 893.95-29.5 893.95 0ZM896.95 0L895.45 0 895.45-29.5 896.95-29.5 896.95 0ZM907.45 0L902.95 0 902.95-29.5 907.45-29.5 907.45 0ZM910.45 0L908.95 0 908.95-29.5 910.45-29.5 910.45 0ZM882.15 15.95L882.15 14.85 884.35 14.85 884.35 8.55 882.25 8.55 882.25 7.45 885.65 7.45 885.65 14.85 887.65 14.85 887.65 15.95 882.15 15.95ZM884.95 5.65L884.95 5.65Q884.55 5.65 884.25 5.4L884.25 5.4Q884 5.1 884 4.7L884 4.7Q884 4.3 884.25 4.05L884.25 4.05Q884.5 3.75 884.95 3.75L884.95 3.75Q885.3 3.75 885.6 4.05L885.6 4.05Q885.9 4.35 885.9 4.7L885.9 4.7Q885.9 5.1 885.6 5.4L885.6 5.4Q885.3 5.65 884.95 5.65ZM913.45 0L911.95 0 911.95-29.5 913.45-29.5 913.45 0ZM920.95 0L919.45 0 919.45-29.5 920.95-29.5 920.95 0ZM923.95 0L922.45 0 922.45-29.5 923.95-29.5 923.95 0ZM931.45 0L929.95 0 929.95-29.5 931.45-29.5 931.45 0ZM938.95 0L937.45 0 937.45-29.5 938.95-29.5 938.95 0ZM941.95 0L940.45 0 940.45-29.5 941.95-29.5 941.95 0ZM947.95 0L943.45 0 943.45-29.5 947.95-29.5 947.95 0ZM950.95 0L949.45 0 949.45-29.5 950.95-29.5 950.95 0ZM956.95 0L952.45 0 952.45-29.5 956.95-29.5 956.95 0ZM964.45 0L962.95 0 962.95-29.5 964.45-29.5 964.45 0ZM938.95 16.15L938.95 16.15Q936.8 16.15 935.35 14.8L935.35 14.8 936.1 13.55 936.2 13.35 936.35 13.45Q936.35 13.5 936.35 13.6L936.35 13.6Q936.4 13.75 936.45 13.85L936.45 13.85Q936.55 14 936.65 14.15L936.65 14.15Q937.1 14.55 937.65 14.8L937.65 14.8Q938.2 15 939 15L939 15Q940 15 940.6 14.65L940.6 14.65Q941.15 14.3 941.15 13.65L941.15 13.65Q941.15 13.1 940.7 12.75L940.7 12.75Q940.25 12.4 939 12.05L939 12.05Q935.8 11.1 935.8 9.4L935.8 9.4Q935.8 8.4 936.65 7.85L936.65 7.85Q937.45 7.25 938.95 7.25L938.95 7.25Q940.1 7.25 940.9 7.6L940.9 7.6Q941.7 7.9 942.35 8.6L942.35 8.6 941.55 9.5 941.45 9.65 941.35 9.55Q941.35 9.35 941.25 9.25L941.25 9.25Q941.2 9.1 941 8.95L941 8.95Q940.55 8.6 940.05 8.45L940.05 8.45Q939.5 8.25 939 8.25L939 8.25Q938.2 8.25 937.65 8.55L937.65 8.55Q937.15 8.8 937.15 9.3L937.15 9.3Q937.15 9.8 937.7 10.15L937.7 10.15Q938.2 10.55 939.55 10.95L939.55 10.95Q941.15 11.45 941.8 12L941.8 12Q942.5 12.55 942.5 13.5L942.5 13.5Q942.5 14.65 941.6 15.4L941.6 15.4Q940.7 16.15 938.95 16.15ZM967.45 0L965.95 0 965.95-29.5 967.45-29.5 967.45 0ZM974.95 0L973.45 0 973.45-29.5 974.95-29.5 974.95 0ZM977.95 0L976.45 0 976.45-29.5 977.95-29.5 977.95 0ZM985.45 0L983.95 0 983.95-29.5 985.45-29.5 985.45 0ZM992.95 0L991.45 0 991.45-29.5 992.95-29.5 992.95 0ZM995.95 0L994.45 0 994.45-29.5 995.95-29.5 995.95 0ZM1001.95 0L997.45 0 997.45-29.5 1001.95-29.5 1001.95 0ZM1004.95 0L1003.45 0 1003.45-29.5 1004.95-29.5 1004.95 0ZM1010.95 0L1006.45 0 1006.45-29.5 1010.95-29.5 1010.95 0ZM1018.45 0L1016.95 0 1016.95-29.5 1018.45-29.5 1018.45 0ZM992.95 16.15L992.95 16.15Q990.8 16.15 989.35 14.8L989.35 14.8 990.1 13.55 990.2 13.35 990.35 13.45Q990.35 13.5 990.35 13.6L990.35 13.6Q990.4 13.75 990.45 13.85L990.45 13.85Q990.55 14 990.65 14.15L990.65 14.15Q991.1 14.55 991.65 14.8L991.65 14.8Q992.2 15 993 15L993 15Q994 15 994.6 14.65L994.6 14.65Q995.15 14.3 995.15 13.65L995.15 13.65Q995.15 13.1 994.7 12.75L994.7 12.75Q994.25 12.4 993 12.05L993 12.05Q989.8 11.1 989.8 9.4L989.8 9.4Q989.8 8.4 990.65 7.85L990.65 7.85Q991.45 7.25 992.95 7.25L992.95 7.25Q994.1 7.25 994.9 7.6L994.9 7.6Q995.7 7.9 996.35 8.6L996.35 8.6 995.55 9.5 995.45 9.65 995.35 9.55Q995.35 9.35 995.25 9.25L995.25 9.25Q995.2 9.1 995 8.95L995 8.95Q994.55 8.6 994.05 8.45L994.05 8.45Q993.5 8.25 993 8.25L993 8.25Q992.2 8.25 991.65 8.55L991.65 8.55Q991.15 8.8 991.15 9.3L991.15 9.3Q991.15 9.8 991.7 10.15L991.7 10.15Q992.2 10.55 993.55 10.95L993.55 10.95Q995.15 11.45 995.8 12L995.8 12Q996.5 12.55 996.5 13.5L996.5 13.5Q996.5 14.65 995.6 15.4L995.6 15.4Q994.7 16.15 992.95 16.15ZM1021.45 0L1019.95 0 1019.95-29.5 1021.45-29.5 1021.45 0ZM1028.95 0L1027.45 0 1027.45-29.5 1028.95-29.5 1028.95 0ZM1031.95 0L1030.45 0 1030.45-29.5 1031.95-29.5 1031.95 0ZM1039.45 0L1037.95 0 1037.95-29.5 1039.45-29.5 1039.45 0ZM1046.95 0L1045.45 0 1045.45-29.5 1046.95-29.5 1046.95 0ZM1049.95 0L1048.45 0 1048.45-29.5 1049.95-29.5 1049.95 0ZM1055.95 0L1051.45 0 1051.45-29.5 1055.95-29.5 1055.95 0ZM1058.95 0L1057.45 0 1057.45-29.5 1058.95-29.5 1058.95 0ZM1069.45 0L1064.95 0 1064.95-29.5 1069.45-29.5 1069.45 0ZM1072.45 0L1070.95 0 1070.95-29.5 1072.45-29.5 1072.45 0ZM1044.15 15.95L1044.15 14.85 1046.35 14.85 1046.35 8.55 1044.25 8.55 1044.25 7.45 1047.65 7.45 1047.65 14.85 1049.65 14.85 1049.65 15.95 1044.15 15.95ZM1046.95 5.65L1046.95 5.65Q1046.55 5.65 1046.25 5.4L1046.25 5.4Q1046 5.1 1046 4.7L1046 4.7Q1046 4.3 1046.25 4.05L1046.25 4.05Q1046.5 3.75 1046.95 3.75L1046.95 3.75Q1047.3 3.75 1047.6 4.05L1047.6 4.05Q1047.9 4.35 1047.9 4.7L1047.9 4.7Q1047.9 5.1 1047.6 5.4L1047.6 5.4Q1047.3 5.65 1046.95 5.65ZM1075.44 0L1073.94 0 1073.94-29.5 1075.44-29.5 1075.44 0ZM1082.94 0L1081.44 0 1081.44-29.5 1082.94-29.5 1082.94 0ZM1085.94 0L1084.44 0 1084.44-29.5 1085.94-29.5 1085.94 0ZM1093.44 0L1091.94 0 1091.94-29.5 1093.44-29.5 1093.44 0ZM1100.94 0L1099.44 0 1099.44-29.5 1100.94-29.5 1100.94 0ZM1106.94 0L1102.44 0 1102.44-29.5 1106.94-29.5 1106.94 0ZM1109.94 0L1108.44 0 1108.44-29.5 1109.94-29.5 1109.94 0ZM1115.94 0L1111.44 0 1111.44-29.5 1115.94-29.5 1115.94 0ZM1118.94 0L1117.44 0 1117.44-29.5 1118.94-29.5 1118.94 0ZM1126.44 0L1124.94 0 1124.94-29.5 1126.44-29.5 1126.44 0ZM1100.94 16.1L1100.94 16.1Q1099.79 16.1 1098.89 15.55L1098.89 15.55Q1098.04 15 1097.54 14L1097.54 14Q1096.99 13 1096.99 11.7L1096.99 11.7Q1096.99 10.4 1097.54 9.4L1097.54 9.4Q1098.04 8.4 1098.89 7.85L1098.89 7.85Q1099.79 7.25 1100.94 7.25L1100.94 7.25Q1102.09 7.25 1102.94 7.85L1102.94 7.85Q1103.84 8.4 1104.34 9.4L1104.34 9.4Q1104.84 10.4 1104.84 11.7L1104.84 11.7Q1104.84 13 1104.34 14L1104.34 14Q1103.84 15 1102.94 15.55L1102.94 15.55Q1102.09 16.1 1100.94 16.1ZM1100.94 15L1100.94 15Q1101.64 15 1102.24 14.55L1102.24 14.55Q1102.79 14.15 1103.14 13.4L1103.14 13.4Q1103.44 12.6 1103.44 11.65L1103.44 11.65Q1103.44 10.2 1102.74 9.3L1102.74 9.3Q1102.04 8.4 1100.94 8.4L1100.94 8.4Q1099.84 8.4 1099.14 9.3L1099.14 9.3Q1098.44 10.2 1098.44 11.65L1098.44 11.65Q1098.44 12.6 1098.74 13.4L1098.74 13.4Q1099.09 14.15 1099.64 14.55L1099.64 14.55Q1100.19 15 1100.94 15ZM1129.44 0L1127.94 0 1127.94-29.5 1129.44-29.5 1129.44 0ZM1136.94 0L1135.44 0 1135.44-29.5 1136.94-29.5 1136.94 0ZM1139.94 0L1138.44 0 1138.44-29.5 1139.94-29.5 1139.94 0ZM1147.44 0L1145.94 0 1145.94-29.5 1147.44-29.5 1147.44 0ZM1154.94 0L1153.44 0 1153.44-29.5 1154.94-29.5 1154.94 0ZM1157.94 0L1156.44 0 1156.44-29.5 1157.94-29.5 1157.94 0ZM1160.94 0L1159.44 0 1159.44-29.5 1160.94-29.5 1160.94 0ZM1166.94 0L1162.44 0 1162.44-29.5 1166.94-29.5 1166.94 0ZM1169.94 0L1168.44 0 1168.44-29.5 1169.94-29.5 1169.94 0ZM1180.44 0L1175.94 0 1175.94-29.5 1180.44-29.5 1180.44 0ZM1151.64 15.95L1151.64 7.45 1152.94 7.45 1152.94 8.95Q1153.44 8.2 1154.19 7.7L1154.19 7.7Q1154.94 7.25 1155.79 7.25L1155.79 7.25Q1156.94 7.25 1157.64 8.1L1157.64 8.1Q1158.29 9 1158.29 10.8L1158.29 10.8 1158.29 15.95 1156.99 15.95 1156.99 10.85Q1156.99 9.55 1156.59 9L1156.59 9Q1156.14 8.4 1155.44 8.4L1155.44 8.4Q1154.84 8.4 1154.29 8.75L1154.29 8.75Q1153.69 9.1 1153.29 9.7L1153.29 9.7Q1152.94 10.3 1152.94 11.05L1152.94 11.05 1152.94 15.95 1151.64 15.95Z" opacity="1" transform="matrix(1,0,0,1,0,0)" fill="#ffffff" class="undefined-text-1" data-fill-palette-color="secondary" id="text-1"></path></svg></g></svg></g></svg></g></svg></g><g transform="matrix(1,0,0,1,129.96140277012003,0)"><svg viewBox="0 0 135.59719445975992 135.59719445975992" height="135.59719445975992" width="135.59719445975992"><g><svg></svg></g><g id="icon-0"><svg viewBox="0 0 135.59719445975992 135.59719445975992" height="135.59719445975992" width="135.59719445975992"><g><path d="M0 67.799c0-37.444 30.354-67.799 67.799-67.799 37.444 0 67.799 30.354 67.798 67.799 0 37.444-30.354 67.799-67.798 67.798-37.444 0-67.799-30.354-67.799-67.798zM67.799 132.26c35.601 0 64.462-28.86 64.461-64.461 0-35.601-28.86-64.462-64.461-64.462-35.601 0-64.462 28.86-64.462 64.462 0 35.601 28.86 64.462 64.462 64.461z" data-fill-palette-color="tertiary" fill="#ffffff" stroke="transparent"></path></g><g transform="matrix(1,0,0,1,27.320585697966116,47.50956044999085)"><svg viewBox="0 0 80.95602306382769 40.57807355977822" height="40.57807355977822" width="80.95602306382769"><g><svg xmlns="http://www.w3.org/2000/svg" xmlns:xlink="http://www.w3.org/1999/xlink" xml:space="preserve" style="shape-rendering:geometricPrecision;text-rendering:geometricPrecision;image-rendering:optimizeQuality;" viewBox="0.0000020265579223632812 0.0000027120113372802734 14.727499008178711 7.38195276260376" x="0" y="0" fill-rule="evenodd" clip-rule="evenodd" width="80.95602306382769" height="40.57807355977822" class="icon-s-0" data-fill-palette-color="accent" id="s-0"><g fill="#ffffff" data-fill-palette-color="accent"><path class="" d="M1.757 3.091c-0.313 0.444-0.296 1.331-0.417 1.95-0.153 0.784-0.711 1.203-1.34 1.534 0.188-0.771 0.348-1.542 0.412-2.313 0.078-0.953-0.06-0.891 0.767-1.575 1.159-0.961 3.04-1.741 5.848-2.29 2.456-0.406 5.049-0.453 7.701-0.351-0.89 1.809-3.733 1.961-7.203 1.581-1.811 0.02-3.495-0.488-5.768 1.464z m8.33 2.781c-3.895 2.038-7.803-2.284-9.165 0.688 2.104-1.831 5.079 3.183 9.165-0.688z m2.489-2.547c-4.49 2.72-9.502-0.792-10.907 1.859 3.412-1.235 7.765 2.753 10.907-1.859z m0.834-1.478c-3.944 1.761-10.043-1.402-11.565 2.239 3.106-1.808 8.446 1.438 11.565-2.239z" fill="#ffffff" dataFillPaletteColor="accent"></path></g></svg></g></svg></g></svg></g></svg></g><g></g></svg></g><defs></defs></svg><rect width="395.52" height="208.20237486747362" fill="none" stroke="none" visibility="hidden"></rect></g></svg></g></svg>