<svg width="30" height="30" viewBox="0 0 30 30" fill="none" xmlns="http://www.w3.org/2000/svg">
<path fill-rule="evenodd" clip-rule="evenodd" d="M23 15C23 12.46 21.81 10.19 19.96 8.73L19.28 4.67C19.12 3.71 18.28 3 17.31 3H12.7C11.72 3 10.88 3.71 10.72 4.67L10.05 8.73C8.19 10.19 7 12.45 7 15C7 17.55 8.19 19.81 10.05 21.27L10.72 25.33C10.88 26.29 11.72 27 12.7 27H17.31C18.29 27 19.12 26.29 19.28 25.33L19.96 21.27C21.81 19.81 23 17.54 23 15ZM9 15C9 11.69 11.69 9 15 9C18.31 9 21 11.69 21 15C21 18.31 18.31 21 15 21C11.69 21 9 18.31 9 15Z" fill="#C3CAD9"/>
</svg>
